# Blender v2.79 (sub 0) OBJ File: 'Chest.blend'
# www.blender.org
mtllib Chest.mtl
o Cylinder
v -0.999988 0.964912 -1.000000
v 0.999988 0.974857 -1.000000
v -0.999018 0.769824 -0.980785
v 1.000958 0.779769 -0.980785
v -0.998085 0.582233 -0.923880
v 1.001891 0.592178 -0.923880
v -0.998644 0.581052 -0.831470
v 1.001331 0.590997 -0.831470
v -0.999215 0.589843 -0.707107
v 1.000760 0.599788 -0.707107
v -0.999637 0.591407 -0.555570
v 1.000338 0.601351 -0.555570
v -0.999882 0.584216 -0.382683
v 1.000093 0.594161 -0.382683
v -0.999961 0.571150 -0.195090
v 1.000014 0.581095 -0.195090
v -0.999866 0.551935 -0.000000
v 1.000110 0.561880 -0.000000
v -0.999961 0.571150 0.195090
v 1.000014 0.581095 0.195090
v -0.999882 0.584216 0.382683
v 1.000093 0.594161 0.382683
v -0.999637 0.591407 0.555570
v 1.000338 0.601351 0.555570
v -0.999215 0.589843 0.707107
v 1.000760 0.599788 0.707107
v -0.998644 0.581052 0.831470
v 1.001331 0.590997 0.831470
v -0.998085 0.582233 0.923880
v 1.001891 0.592178 0.923880
v -0.999018 0.769824 0.980785
v 1.000958 0.779769 0.980785
v -0.999988 0.964912 1.000000
v 0.999988 0.974857 1.000000
v -1.000958 1.160000 0.980785
v 0.999018 1.169945 0.980785
v -1.001891 1.347591 0.923879
v 0.998085 1.357536 0.923879
v -1.002750 1.520476 0.831469
v 0.997225 1.530421 0.831469
v -1.003504 1.672010 0.707106
v 0.996472 1.681955 0.707106
v -1.004122 1.796371 0.555570
v 0.995853 1.806316 0.555570
v -1.004582 1.888780 0.382683
v 0.995394 1.898725 0.382683
v -1.004865 1.945685 0.195089
v 0.995111 1.955630 0.195089
v -1.004960 1.964899 -0.000001
v 0.995015 1.974844 -0.000001
v -1.004865 1.945685 -0.195091
v 0.995111 1.955630 -0.195091
v -1.004582 1.888779 -0.382684
v 0.995394 1.898724 -0.382684
v -1.004122 1.796371 -0.555571
v 0.995853 1.806315 -0.555571
v -1.003504 1.672009 -0.707108
v 0.996472 1.681954 -0.707108
v -1.002750 1.520474 -0.831470
v 0.997225 1.530419 -0.831470
v -1.001891 1.347589 -0.923880
v 0.998085 1.357534 -0.923880
v -1.000958 1.159998 -0.980786
v 0.999018 1.169943 -0.980786
v 1.007907 -0.217126 -0.923880
v -0.992068 -0.227071 -0.923880
v -0.992627 -0.228252 -0.831470
v 1.007348 -0.218307 -0.831470
v -0.993199 -0.219462 -0.707107
v 1.006777 -0.209517 -0.707107
v -0.993621 -0.217898 -0.555570
v 1.006355 -0.207953 -0.555570
v -0.993865 -0.225088 -0.382683
v 1.006110 -0.215143 -0.382683
v -0.993945 -0.238154 -0.195090
v 1.006031 -0.228210 -0.195090
v -0.993849 -0.257369 -0.000000
v 1.006126 -0.247424 -0.000000
v -0.993945 -0.238154 0.195090
v 1.006031 -0.228210 0.195090
v -0.993865 -0.225088 0.382683
v 1.006110 -0.215143 0.382683
v -0.993621 -0.217898 0.555570
v 1.006355 -0.207953 0.555570
v -0.993199 -0.219462 0.707107
v 1.006777 -0.209517 0.707107
v -0.992627 -0.228252 0.831470
v 1.007348 -0.218307 0.831470
v -0.992068 -0.227071 0.923880
v 1.007907 -0.217126 0.923880
vn 0.0005 -0.0980 -0.9952
vn 0.0014 -0.2903 -0.9569
vn 1.0000 0.0074 0.0009
vn -0.0000 0.0000 1.0000
vn -1.0000 -0.0074 0.0027
vn -1.0000 -0.0074 -0.0009
vn 1.0000 0.0074 -0.0061
vn 1.0000 0.0074 -0.0002
vn 1.0000 0.0074 0.0041
vn -1.0000 -0.0074 0.0061
vn -1.0000 -0.0074 0.0002
vn -1.0000 -0.0074 -0.0041
vn 1.0000 0.0074 -0.0017
vn 1.0000 0.0074 0.0017
vn 0.0014 -0.2903 0.9569
vn 0.0005 -0.0980 0.9952
vn -0.0005 0.0980 0.9952
vn -0.0014 0.2903 0.9569
vn -0.0023 0.4714 0.8819
vn -0.0032 0.6344 0.7730
vn -0.0038 0.7730 0.6344
vn -0.0044 0.8819 0.4714
vn -0.0048 0.9569 0.2903
vn -0.0049 0.9952 0.0980
vn -0.0049 0.9952 -0.0980
vn -0.0048 0.9569 -0.2903
vn -0.0044 0.8819 -0.4714
vn -0.0038 0.7730 -0.6344
vn -0.0032 0.6344 -0.7730
vn -0.0023 0.4714 -0.8819
vn 1.0000 0.0038 0.0000
vn -0.0014 0.2903 -0.9569
vn -0.0005 0.0980 -0.9952
vn -1.0000 -0.0038 0.0000
vn 0.0050 -0.9999 -0.0127
vn 0.0050 -0.9975 0.0705
vn 0.0050 -0.9999 0.0103
vn 0.0050 -0.9991 -0.0415
vn 0.0050 -0.9976 -0.0695
vn 0.0049 -0.9952 -0.0980
vn 0.0049 -0.9952 0.0980
vn 0.0050 -0.9976 0.0695
vn 0.0050 -0.9991 0.0415
vn 0.0050 -0.9999 -0.0103
vn 0.0050 -0.9975 -0.0705
vn 0.0050 -0.9999 0.0127
vn 1.0000 0.0074 -0.0027
vn -1.0000 -0.0074 -0.0027
vn -1.0000 -0.0074 0.0009
vn -0.0000 0.0000 -1.0000
vn 1.0000 0.0074 0.0027
vn 1.0000 0.0074 -0.0009
vn -1.0000 -0.0074 -0.0061
vn -1.0000 -0.0074 -0.0002
vn -1.0000 -0.0074 0.0041
vn 1.0000 0.0074 0.0061
vn 1.0000 0.0074 0.0002
vn 1.0000 0.0074 -0.0041
vn -1.0000 -0.0074 -0.0017
vn -1.0000 -0.0074 0.0017
usemtl None
s off
f 1//1 2//1 4//1 3//1
f 3//2 4//2 6//2 5//2
f 14//3 16//3 76//3 74//3
f 30//4 29//4 89//4 90//4
f 25//5 23//5 83//5 85//5
f 15//6 13//6 73//6 75//6
f 28//7 30//7 90//7 88//7
f 18//8 20//8 80//8 78//8
f 8//9 10//9 70//9 68//9
f 29//10 27//10 87//10 89//10
f 19//11 17//11 77//11 79//11
f 9//12 7//12 67//12 69//12
f 22//13 24//13 84//13 82//13
f 12//14 14//14 74//14 72//14
f 29//15 30//15 32//15 31//15
f 31//16 32//16 34//16 33//16
f 33//17 34//17 36//17 35//17
f 35//18 36//18 38//18 37//18
f 37//19 38//19 40//19 39//19
f 39//20 40//20 42//20 41//20
f 41//21 42//21 44//21 43//21
f 43//22 44//22 46//22 45//22
f 45//23 46//23 48//23 47//23
f 47//24 48//24 50//24 49//24
f 49//25 50//25 52//25 51//25
f 51//26 52//26 54//26 53//26
f 53//27 54//27 56//27 55//27
f 55//28 56//28 58//28 57//28
f 57//29 58//29 60//29 59//29
f 59//30 60//30 62//30 61//30
f 4//31 2//31 64//31 62//31 60//31 58//31 56//31 54//31 52//31 50//31 48//31 46//31 44//31 42//31 40//31 38//31 36//31 34//31 32//31 30//31 28//31 26//31 24//31 22//31 20//31 18//31 16//31 14//31 12//31 10//31 8//31 6//31
f 61//32 62//32 64//32 63//32
f 63//33 64//33 2//33 1//33
f 1//34 3//34 5//34 7//34 9//34 11//34 13//34 15//34 17//34 19//34 21//34 23//34 25//34 27//34 29//34 31//34 33//34 35//34 37//34 39//34 41//34 43//34 45//34 47//34 49//34 51//34 53//34 55//34 57//34 59//34 61//34 63//34
f 66//35 65//35 68//35 67//35
f 67//36 68//36 70//36 69//36
f 69//37 70//37 72//37 71//37
f 71//38 72//38 74//38 73//38
f 73//39 74//39 76//39 75//39
f 75//40 76//40 78//40 77//40
f 77//41 78//41 80//41 79//41
f 79//42 80//42 82//42 81//42
f 81//43 82//43 84//43 83//43
f 83//44 84//44 86//44 85//44
f 85//45 86//45 88//45 87//45
f 87//46 88//46 90//46 89//46
f 24//47 26//47 86//47 84//47
f 11//48 9//48 69//48 71//48
f 21//49 19//49 79//49 81//49
f 5//50 6//50 65//50 66//50
f 10//51 12//51 72//51 70//51
f 20//52 22//52 82//52 80//52
f 7//53 5//53 66//53 67//53
f 17//54 15//54 75//54 77//54
f 27//55 25//55 85//55 87//55
f 6//56 8//56 68//56 65//56
f 16//57 18//57 78//57 76//57
f 26//58 28//58 88//58 86//58
f 13//59 11//59 71//59 73//59
f 23//60 21//60 81//60 83//60
