# Blender v2.79 (sub 0) OBJ File: 'Ovean.blend'
# www.blender.org
mtllib Ovean.mtl
o Cube
v 1.000000 -0.365544 -1.000000
v 1.000000 -0.365544 1.000000
v -1.000000 -0.365544 1.000000
v -1.000000 -0.365544 -1.000000
v 1.000000 1.634456 -0.999999
v 0.999999 1.634456 1.000001
v -1.000000 1.634456 1.000000
v -1.000000 1.634456 -1.000000
v 1.000000 -0.365544 1.000000
v -1.000000 -0.365544 1.000000
v 0.999999 1.634456 1.000001
v -1.000000 1.634456 1.000000
v 0.778603 -0.197769 1.000000
v -0.778603 -0.197769 1.000000
v 0.778603 1.172156 1.000001
v -0.778604 1.172156 1.000000
v 0.778603 -0.197769 0.866627
v -0.778603 -0.197769 0.866627
v 0.778603 1.172156 0.866628
v -0.778604 1.172156 0.866627
v 0.443421 1.610250 -0.753761
v 0.443421 1.610250 0.147630
v -0.650175 1.610250 -0.753762
v -0.650175 1.610250 0.147629
v 0.443421 1.520030 -0.753761
v 0.443421 1.520030 0.147630
v -0.650175 1.520030 -0.753762
v -0.650175 1.520030 0.147629
vn 0.0000 -1.0000 0.0000
vn 0.0690 0.9976 -0.0000
vn 1.0000 0.0000 0.0000
vn 0.0000 0.0000 1.0000
vn -1.0000 -0.0000 -0.0000
vn 0.0000 0.0000 -1.0000
vn 0.0000 1.0000 0.0000
vn -0.0000 0.9952 0.0978
vn 0.0000 0.9996 -0.0284
vn -0.0434 0.9991 0.0000
usemtl Material
s off
f 1//1 2//1 3//1 4//1
f 8//2 7//2 24//2 23//2
f 1//3 5//3 6//3 2//3
f 7//4 3//4 10//4 12//4
f 3//5 7//5 8//5 4//5
f 5//6 1//6 4//6 8//6
f 11//4 12//4 16//4 15//4
f 2//4 6//4 11//4 9//4
f 3//4 2//4 9//4 10//4
f 6//4 7//4 12//4 11//4
f 16//3 14//3 18//3 20//3
f 9//4 11//4 15//4 13//4
f 12//4 10//4 14//4 16//4
f 10//4 9//4 13//4 14//4
f 17//4 19//4 20//4 18//4
f 14//7 13//7 17//7 18//7
f 15//1 16//1 20//1 19//1
f 13//5 15//5 19//5 17//5
f 23//3 24//3 28//3 27//3
f 5//8 8//8 23//8 21//8
f 7//9 6//9 22//9 24//9
f 6//10 5//10 21//10 22//10
f 25//7 27//7 28//7 26//7
f 21//4 23//4 27//4 25//4
f 24//6 22//6 26//6 28//6
f 22//5 21//5 25//5 26//5
