# Blender v2.79 (sub 0) OBJ File: 'Jump Boost.blend'
# www.blender.org
mtllib Jump Boost.mtl
o Cube.001_Cube.003
v 0.310831 1.360409 0.001585
v 0.310831 0.738242 0.009494
v 0.100282 0.738242 0.009494
v 0.100282 1.360409 0.001585
v 0.310831 1.357793 0.082283
v 0.310831 0.735627 0.090192
v 0.100282 0.735627 0.090192
v 0.100282 1.357793 0.082283
v 0.517121 0.872768 -0.014217
v 0.517121 0.606085 0.005212
v 0.517121 0.870153 0.066480
v 0.517121 0.603469 0.085910
v -0.106008 0.606085 0.005212
v -0.106008 0.872768 -0.014217
v -0.106008 0.603470 0.085910
v -0.106008 0.870153 0.066480
v 0.592606 0.420524 -0.000802
v 0.592606 0.210085 -0.007621
v 0.592607 0.417908 0.079896
v 0.592606 0.207470 0.073077
v -0.181493 0.210085 -0.007621
v -0.181493 0.420524 -0.000802
v -0.181494 0.207470 0.073077
v -0.181493 0.417909 0.079896
v 0.310831 0.074891 -0.012002
v 0.100282 0.074891 -0.012002
v 0.310831 0.072276 0.068696
v 0.100282 0.072276 0.068696
v 0.239112 1.484398 0.040228
v 0.172002 1.484399 0.040228
v 0.239112 1.484025 0.051749
v 0.172002 1.484025 0.051749
vn -0.0000 -0.0127 -0.9999
vn 0.0000 0.0127 0.9999
vn -0.5396 -0.8415 -0.0273
vn -1.0000 0.0000 -0.0000
vn 0.5396 -0.8415 -0.0273
vn 0.0000 0.2975 -0.9547
vn 0.1431 -0.0261 -0.9894
vn -0.9863 0.1648 0.0053
vn 0.9211 0.3892 0.0126
vn -0.0944 0.0306 0.9951
vn -0.0944 -0.0306 -0.9951
vn -0.9211 0.3892 0.0126
vn 0.0944 -0.0306 -0.9951
vn 0.0944 0.0306 0.9951
vn 1.0000 -0.0000 -0.0000
vn 0.9863 0.1648 0.0053
vn 0.1431 0.0261 0.9894
vn 0.9823 -0.1871 -0.0061
vn -0.9823 -0.1871 -0.0061
vn -0.1431 -0.0261 -0.9894
vn -0.1431 0.0261 0.9894
vn -0.0000 -0.9995 -0.0324
vn 0.0000 0.0324 -0.9995
vn 0.0000 -0.0324 0.9995
vn 0.0000 0.9995 0.0324
vn 0.8677 0.4969 0.0161
vn 0.0000 0.2351 0.9720
vn -0.8677 0.4969 0.0161
usemtl Material.003
s off
f 1//1 2//1 3//1 4//1
f 5//2 8//2 7//2 6//2
f 6//3 2//3 10//3 12//3
f 7//4 3//4 26//4 28//4
f 3//5 7//5 15//5 13//5
f 1//6 4//6 30//6 29//6
f 14//7 13//7 21//7 22//7
f 16//8 14//8 22//8 24//8
f 1//9 5//9 11//9 9//9
f 7//10 8//10 16//10 15//10
f 2//11 1//11 9//11 10//11
f 8//12 4//12 14//12 16//12
f 4//13 3//13 13//13 14//13
f 5//14 6//14 12//14 11//14
f 17//15 19//15 20//15 18//15
f 21//4 23//4 24//4 22//4
f 9//16 11//16 19//16 17//16
f 11//17 12//17 20//17 19//17
f 13//18 15//18 23//18 21//18
f 12//19 10//19 18//19 20//19
f 10//20 9//20 17//20 18//20
f 15//21 16//21 24//21 23//21
f 25//22 27//22 28//22 26//22
f 2//15 6//15 27//15 25//15
f 3//23 2//23 25//23 26//23
f 6//24 7//24 28//24 27//24
f 31//25 29//25 30//25 32//25
f 5//26 1//26 29//26 31//26
f 8//27 5//27 31//27 32//27
f 4//28 8//28 32//28 30//28
o Cube.000_Cube.001
v 0.310831 2.794816 0.001585
v 0.310831 2.172649 0.009494
v 0.100282 2.172649 0.009494
v 0.100282 2.794816 0.001585
v 0.310831 2.792200 0.082283
v 0.310831 2.170034 0.090192
v 0.100282 2.170034 0.090192
v 0.100282 2.792201 0.082283
v 0.517121 2.307175 -0.014217
v 0.517121 2.040492 0.005212
v 0.517121 2.304560 0.066480
v 0.517121 2.037877 0.085910
v -0.106008 2.040492 0.005212
v -0.106008 2.307175 -0.014217
v -0.106008 2.037877 0.085910
v -0.106008 2.304560 0.066480
v 0.592606 1.854931 -0.000802
v 0.592606 1.644492 -0.007621
v 0.592607 1.852315 0.079896
v 0.592606 1.641877 0.073077
v -0.181493 1.644492 -0.007621
v -0.181493 1.854931 -0.000802
v -0.181494 1.641877 0.073077
v -0.181493 1.852316 0.079896
v 0.310831 1.509298 -0.012002
v 0.100282 1.509298 -0.012002
v 0.310831 1.506683 0.068696
v 0.100282 1.506683 0.068696
v 0.239112 2.918805 0.040228
v 0.172002 2.918806 0.040228
v 0.239112 2.918432 0.051749
v 0.172002 2.918432 0.051749
vn -0.0000 -0.0127 -0.9999
vn 0.0000 0.0127 0.9999
vn -0.5396 -0.8415 -0.0273
vn -1.0000 0.0000 -0.0000
vn 0.5396 -0.8415 -0.0273
vn 0.0000 0.2975 -0.9547
vn 0.1431 -0.0261 -0.9894
vn -0.9863 0.1648 0.0053
vn 0.9211 0.3892 0.0126
vn -0.0944 0.0306 0.9951
vn -0.0944 -0.0306 -0.9951
vn -0.9211 0.3892 0.0126
vn 0.0944 -0.0306 -0.9951
vn 0.0944 0.0306 0.9951
vn 1.0000 -0.0000 -0.0000
vn 0.9863 0.1648 0.0053
vn 0.1431 0.0261 0.9894
vn 0.9823 -0.1871 -0.0061
vn -0.9823 -0.1871 -0.0061
vn -0.1431 -0.0261 -0.9894
vn -0.1431 0.0261 0.9894
vn 0.0000 -0.9995 -0.0324
vn 0.0000 0.0324 -0.9995
vn 0.0000 -0.0324 0.9995
vn 0.0000 0.9995 0.0324
vn 0.8677 0.4969 0.0161
vn 0.0000 0.2351 0.9720
vn -0.8677 0.4969 0.0161
usemtl Material.005
s off
f 33//29 34//29 35//29 36//29
f 37//30 40//30 39//30 38//30
f 38//31 34//31 42//31 44//31
f 39//32 35//32 58//32 60//32
f 35//33 39//33 47//33 45//33
f 33//34 36//34 62//34 61//34
f 46//35 45//35 53//35 54//35
f 48//36 46//36 54//36 56//36
f 33//37 37//37 43//37 41//37
f 39//38 40//38 48//38 47//38
f 34//39 33//39 41//39 42//39
f 40//40 36//40 46//40 48//40
f 36//41 35//41 45//41 46//41
f 37//42 38//42 44//42 43//42
f 49//43 51//43 52//43 50//43
f 53//32 55//32 56//32 54//32
f 41//44 43//44 51//44 49//44
f 43//45 44//45 52//45 51//45
f 45//46 47//46 55//46 53//46
f 44//47 42//47 50//47 52//47
f 42//48 41//48 49//48 50//48
f 47//49 48//49 56//49 55//49
f 57//50 59//50 60//50 58//50
f 34//43 38//43 59//43 57//43
f 35//51 34//51 57//51 58//51
f 38//52 39//52 60//52 59//52
f 63//53 61//53 62//53 64//53
f 37//54 33//54 61//54 63//54
f 40//55 37//55 63//55 64//55
f 36//56 40//56 64//56 62//56
o Cube.002
v 0.310831 4.254322 0.001585
v 0.310831 3.632156 0.009494
v 0.100282 3.632156 0.009494
v 0.100282 4.254323 0.001585
v 0.310831 4.251707 0.082283
v 0.310831 3.629540 0.090192
v 0.100282 3.629541 0.090192
v 0.100282 4.251707 0.082283
v 0.517121 3.766681 -0.014217
v 0.517121 3.499998 0.005212
v 0.517121 3.764066 0.066480
v 0.517121 3.497383 0.085910
v -0.106008 3.499998 0.005212
v -0.106008 3.766682 -0.014217
v -0.106008 3.497383 0.085910
v -0.106008 3.764066 0.066480
v 0.592606 3.314437 -0.000802
v 0.592606 3.103998 -0.007621
v 0.592607 3.311822 0.079896
v 0.592606 3.101383 0.073077
v -0.181493 3.103998 -0.007621
v -0.181493 3.314437 -0.000802
v -0.181494 3.101383 0.073077
v -0.181493 3.311822 0.079896
v 0.310831 2.968805 -0.012002
v 0.100282 2.968805 -0.012002
v 0.310831 2.966190 0.068696
v 0.100282 2.966190 0.068696
v 0.239112 4.378312 0.040228
v 0.172002 4.378312 0.040228
v 0.239112 4.377938 0.051749
v 0.172002 4.377938 0.051749
vn -0.0000 -0.0127 -0.9999
vn 0.0000 0.0127 0.9999
vn -0.5396 -0.8415 -0.0273
vn -1.0000 0.0000 -0.0000
vn 0.5396 -0.8415 -0.0273
vn 0.0000 0.2975 -0.9547
vn 0.1431 -0.0261 -0.9894
vn -0.9863 0.1648 0.0053
vn 0.9211 0.3892 0.0126
vn -0.0944 0.0306 0.9951
vn -0.0944 -0.0306 -0.9951
vn -0.9211 0.3892 0.0126
vn 0.0944 -0.0306 -0.9951
vn 0.0944 0.0306 0.9951
vn 1.0000 -0.0000 -0.0000
vn 0.9863 0.1648 0.0053
vn 0.1431 0.0261 0.9894
vn 0.9823 -0.1871 -0.0061
vn -0.9823 -0.1871 -0.0061
vn -0.1431 -0.0261 -0.9894
vn -0.1431 0.0261 0.9894
vn 0.0000 -0.9995 -0.0324
vn 0.0000 0.0324 -0.9995
vn 0.0000 -0.0324 0.9995
vn 0.0000 0.9995 0.0324
vn 0.8677 0.4969 0.0161
vn 0.0000 0.2351 0.9720
vn -0.8677 0.4969 0.0161
usemtl Material.006
s off
f 65//57 66//57 67//57 68//57
f 69//58 72//58 71//58 70//58
f 70//59 66//59 74//59 76//59
f 71//60 67//60 90//60 92//60
f 67//61 71//61 79//61 77//61
f 65//62 68//62 94//62 93//62
f 78//63 77//63 85//63 86//63
f 80//64 78//64 86//64 88//64
f 65//65 69//65 75//65 73//65
f 71//66 72//66 80//66 79//66
f 66//67 65//67 73//67 74//67
f 72//68 68//68 78//68 80//68
f 68//69 67//69 77//69 78//69
f 69//70 70//70 76//70 75//70
f 81//71 83//71 84//71 82//71
f 85//60 87//60 88//60 86//60
f 73//72 75//72 83//72 81//72
f 75//73 76//73 84//73 83//73
f 77//74 79//74 87//74 85//74
f 76//75 74//75 82//75 84//75
f 74//76 73//76 81//76 82//76
f 79//77 80//77 88//77 87//77
f 89//78 91//78 92//78 90//78
f 66//71 70//71 91//71 89//71
f 67//79 66//79 89//79 90//79
f 70//80 71//80 92//80 91//80
f 95//81 93//81 94//81 96//81
f 69//82 65//82 93//82 95//82
f 72//83 69//83 95//83 96//83
f 68//84 72//84 96//84 94//84
