# Blender v2.79 (sub 0) OBJ File: 'Speed Boost.blend'
# www.blender.org
mtllib Speed Boost.mtl
o Cube
v 0.310831 0.053133 0.775485
v 0.310831 0.081189 1.397069
v 0.100282 0.081189 1.397069
v 0.100282 0.053133 0.775484
v 0.310831 0.133873 0.775485
v 0.310831 0.161929 1.397069
v 0.100282 0.161929 1.397069
v 0.100282 0.133873 0.775485
v 0.517121 0.053133 1.263381
v 0.517121 0.081189 1.529295
v 0.517121 0.133873 1.263381
v 0.517121 0.161929 1.529295
v -0.106008 0.081189 1.529295
v -0.106008 0.053133 1.263381
v -0.106008 0.161929 1.529295
v -0.106008 0.133873 1.263381
v 0.592606 0.081189 1.714954
v 0.592606 0.081189 1.925503
v 0.592607 0.161929 1.714954
v 0.592606 0.161929 1.925503
v -0.181493 0.081189 1.925503
v -0.181493 0.081189 1.714954
v -0.181494 0.161929 1.925503
v -0.181493 0.161929 1.714954
v 0.310831 0.081189 2.060768
v 0.100282 0.081189 2.060768
v 0.310831 0.161929 2.060768
v 0.100282 0.161929 2.060768
v 0.239112 0.087739 0.650309
v 0.172002 0.087739 0.650308
v 0.239112 0.099267 0.650309
v 0.172002 0.099267 0.650309
vn -0.0000 -0.9990 0.0451
vn 0.0000 0.9990 -0.0451
vn -0.5396 -0.0000 0.8419
vn -1.0000 -0.0000 -0.0000
vn 0.5396 0.0000 0.8419
vn 0.0000 -0.9638 -0.2665
vn 0.1431 -0.9880 0.0582
vn -0.9863 -0.0000 -0.1649
vn 0.9211 0.0000 -0.3894
vn -0.0944 0.9935 -0.0628
vn -0.0944 -0.9935 0.0628
vn -0.9211 0.0000 -0.3894
vn 0.0944 -0.9935 0.0628
vn 0.0944 0.9935 -0.0628
vn 1.0000 -0.0000 0.0000
vn 0.9863 -0.0000 -0.1649
vn 0.1431 0.9880 -0.0582
vn 0.9823 0.0000 0.1872
vn -0.9823 -0.0000 0.1872
vn -0.1431 -0.9880 0.0582
vn -0.1431 0.9880 -0.0582
vn 0.0000 0.0000 1.0000
vn 0.0000 -1.0000 -0.0000
vn 0.0000 1.0000 0.0000
vn 0.0000 0.0000 -1.0000
vn 0.8677 0.0000 -0.4971
vn 0.0000 0.9638 -0.2665
vn -0.8677 0.0000 -0.4971
usemtl Material
s off
f 1//1 2//1 3//1 4//1
f 5//2 8//2 7//2 6//2
f 6//3 2//3 10//3 12//3
f 7//4 3//4 26//4 28//4
f 3//5 7//5 15//5 13//5
f 1//6 4//6 30//6 29//6
f 14//7 13//7 21//7 22//7
f 16//8 14//8 22//8 24//8
f 1//9 5//9 11//9 9//9
f 7//10 8//10 16//10 15//10
f 2//11 1//11 9//11 10//11
f 8//12 4//12 14//12 16//12
f 4//13 3//13 13//13 14//13
f 5//14 6//14 12//14 11//14
f 17//15 19//15 20//15 18//15
f 21//4 23//4 24//4 22//4
f 9//16 11//16 19//16 17//16
f 11//17 12//17 20//17 19//17
f 13//18 15//18 23//18 21//18
f 12//19 10//19 18//19 20//19
f 10//20 9//20 17//20 18//20
f 15//21 16//21 24//21 23//21
f 25//22 27//22 28//22 26//22
f 2//15 6//15 27//15 25//15
f 3//23 2//23 25//23 26//23
f 6//24 7//24 28//24 27//24
f 31//25 29//25 30//25 32//25
f 5//26 1//26 29//26 31//26
f 8//27 5//27 31//27 32//27
f 4//28 8//28 32//28 30//28
o Cube.001_Cube.003
v 0.310831 0.053133 -0.680822
v 0.310831 0.081189 -0.059238
v 0.100282 0.081189 -0.059238
v 0.100282 0.053133 -0.680822
v 0.310831 0.133873 -0.680821
v 0.310831 0.161929 -0.059238
v 0.100282 0.161929 -0.059238
v 0.100282 0.133873 -0.680822
v 0.517121 0.053133 -0.192925
v 0.517121 0.081189 0.072989
v 0.517121 0.133873 -0.192925
v 0.517121 0.161929 0.072989
v -0.106008 0.081189 0.072989
v -0.106008 0.053133 -0.192925
v -0.106008 0.161929 0.072989
v -0.106008 0.133873 -0.192925
v 0.592606 0.081189 0.258647
v 0.592606 0.081189 0.469197
v 0.592607 0.161929 0.258647
v 0.592606 0.161929 0.469197
v -0.181493 0.081189 0.469197
v -0.181493 0.081189 0.258647
v -0.181494 0.161929 0.469197
v -0.181493 0.161929 0.258647
v 0.310831 0.081189 0.604461
v 0.100282 0.081189 0.604461
v 0.310831 0.161929 0.604461
v 0.100282 0.161929 0.604461
v 0.239112 0.087739 -0.805998
v 0.172002 0.087739 -0.805998
v 0.239112 0.099267 -0.805998
v 0.172002 0.099267 -0.805998
vn -0.0000 -0.9990 0.0451
vn 0.0000 0.9990 -0.0451
vn -0.5396 -0.0000 0.8419
vn -1.0000 0.0000 -0.0000
vn 0.5396 0.0000 0.8419
vn 0.0000 -0.9638 -0.2665
vn 0.1431 -0.9880 0.0582
vn -0.9863 -0.0000 -0.1649
vn 0.9211 0.0000 -0.3894
vn -0.0944 0.9935 -0.0628
vn -0.0944 -0.9935 0.0628
vn -0.9211 0.0000 -0.3894
vn 0.0944 -0.9935 0.0628
vn 0.0944 0.9935 -0.0628
vn 1.0000 -0.0000 0.0000
vn 0.9863 -0.0000 -0.1649
vn 0.1431 0.9880 -0.0582
vn 0.9823 0.0000 0.1872
vn -0.9823 -0.0000 0.1872
vn -0.1431 -0.9880 0.0582
vn -0.1431 0.9880 -0.0582
vn -0.0000 -0.0000 1.0000
vn 0.0000 -1.0000 -0.0000
vn -0.0000 1.0000 0.0000
vn 0.0000 0.0000 -1.0000
vn 0.8677 0.0000 -0.4971
vn 0.0000 0.9638 -0.2665
vn -0.8677 0.0000 -0.4971
usemtl Material.003
s off
f 33//29 34//29 35//29 36//29
f 37//30 40//30 39//30 38//30
f 38//31 34//31 42//31 44//31
f 39//32 35//32 58//32 60//32
f 35//33 39//33 47//33 45//33
f 33//34 36//34 62//34 61//34
f 46//35 45//35 53//35 54//35
f 48//36 46//36 54//36 56//36
f 33//37 37//37 43//37 41//37
f 39//38 40//38 48//38 47//38
f 34//39 33//39 41//39 42//39
f 40//40 36//40 46//40 48//40
f 36//41 35//41 45//41 46//41
f 37//42 38//42 44//42 43//42
f 49//43 51//43 52//43 50//43
f 53//32 55//32 56//32 54//32
f 41//44 43//44 51//44 49//44
f 43//45 44//45 52//45 51//45
f 45//46 47//46 55//46 53//46
f 44//47 42//47 50//47 52//47
f 42//48 41//48 49//48 50//48
f 47//49 48//49 56//49 55//49
f 57//50 59//50 60//50 58//50
f 34//43 38//43 59//43 57//43
f 35//51 34//51 57//51 58//51
f 38//52 39//52 60//52 59//52
f 63//53 61//53 62//53 64//53
f 37//54 33//54 61//54 63//54
f 40//55 37//55 63//55 64//55
f 36//56 40//56 64//56 62//56
o Cube.002_Cube.004
v 0.310831 0.053133 -2.111351
v 0.310831 0.081189 -1.489768
v 0.100282 0.081189 -1.489768
v 0.100282 0.053133 -2.111352
v 0.310831 0.133873 -2.111351
v 0.310831 0.161929 -1.489768
v 0.100282 0.161929 -1.489768
v 0.100282 0.133873 -2.111351
v 0.517121 0.053133 -1.623455
v 0.517121 0.081189 -1.357541
v 0.517121 0.133873 -1.623455
v 0.517121 0.161929 -1.357541
v -0.106008 0.081189 -1.357541
v -0.106008 0.053133 -1.623455
v -0.106008 0.161929 -1.357541
v -0.106008 0.133873 -1.623455
v 0.592606 0.081189 -1.171882
v 0.592606 0.081189 -0.961333
v 0.592607 0.161929 -1.171882
v 0.592606 0.161929 -0.961333
v -0.181493 0.081189 -0.961333
v -0.181493 0.081189 -1.171882
v -0.181494 0.161929 -0.961333
v -0.181493 0.161929 -1.171882
v 0.310831 0.081189 -0.826068
v 0.100282 0.081189 -0.826068
v 0.310831 0.161929 -0.826068
v 0.100282 0.161929 -0.826069
v 0.239112 0.087739 -2.236527
v 0.172002 0.087739 -2.236528
v 0.239112 0.099267 -2.236527
v 0.172002 0.099267 -2.236527
vn -0.0000 -0.9990 0.0451
vn 0.0000 0.9990 -0.0451
vn -0.5396 -0.0000 0.8419
vn -1.0000 -0.0000 -0.0000
vn 0.5396 0.0000 0.8419
vn 0.0000 -0.9638 -0.2665
vn 0.1431 -0.9880 0.0582
vn -0.9863 -0.0000 -0.1649
vn 0.9211 0.0000 -0.3894
vn -0.0944 0.9935 -0.0628
vn -0.0944 -0.9935 0.0628
vn -0.9211 0.0000 -0.3894
vn 0.0944 -0.9935 0.0628
vn 0.0944 0.9935 -0.0628
vn 1.0000 -0.0000 0.0000
vn 0.9863 -0.0000 -0.1649
vn 0.1431 0.9880 -0.0582
vn 0.9823 0.0000 0.1872
vn -0.9823 -0.0000 0.1872
vn -0.1431 -0.9880 0.0582
vn -0.1431 0.9880 -0.0582
vn -0.0000 -0.0000 1.0000
vn 0.0000 -1.0000 -0.0000
vn 0.0000 1.0000 0.0000
vn 0.0000 0.0000 -1.0000
vn 0.8677 0.0000 -0.4971
vn 0.0000 0.9638 -0.2665
vn -0.8677 0.0000 -0.4971
usemtl Material.004
s off
f 65//57 66//57 67//57 68//57
f 69//58 72//58 71//58 70//58
f 70//59 66//59 74//59 76//59
f 71//60 67//60 90//60 92//60
f 67//61 71//61 79//61 77//61
f 65//62 68//62 94//62 93//62
f 78//63 77//63 85//63 86//63
f 80//64 78//64 86//64 88//64
f 65//65 69//65 75//65 73//65
f 71//66 72//66 80//66 79//66
f 66//67 65//67 73//67 74//67
f 72//68 68//68 78//68 80//68
f 68//69 67//69 77//69 78//69
f 69//70 70//70 76//70 75//70
f 81//71 83//71 84//71 82//71
f 85//60 87//60 88//60 86//60
f 73//72 75//72 83//72 81//72
f 75//73 76//73 84//73 83//73
f 77//74 79//74 87//74 85//74
f 76//75 74//75 82//75 84//75
f 74//76 73//76 81//76 82//76
f 79//77 80//77 88//77 87//77
f 89//78 91//78 92//78 90//78
f 66//71 70//71 91//71 89//71
f 67//79 66//79 89//79 90//79
f 70//80 71//80 92//80 91//80
f 95//81 93//81 94//81 96//81
f 69//82 65//82 93//82 95//82
f 72//83 69//83 95//83 96//83
f 68//84 72//84 96//84 94//84
