# Blender v2.75 (sub 0) OBJ File: 'flashlight.blend'
# www.blender.org
mtllib flashlight.mtl
o Cylinder
v 2.100371 13.408263 0.000000
v 2.827669 13.408264 0.000001
v -0.000000 -6.833714 -1.444036
v -0.000000 8.748281 -1.444036
v 0.446232 -6.833714 -1.373360
v 0.446232 8.748281 -1.373360
v 0.848783 -6.833714 -1.168250
v 0.848783 8.748281 -1.168250
v 1.168250 -6.833714 -0.848783
v 1.168250 8.748281 -0.848783
v 1.373360 -6.833714 -0.446232
v 1.373360 8.748281 -0.446232
v 1.444036 -6.833714 0.000000
v 1.444036 8.748281 0.000000
v 1.373360 -6.833714 0.446232
v 1.373360 8.748281 0.446232
v 1.168250 -6.833714 0.848783
v 1.168250 8.748281 0.848783
v 0.848783 -6.833714 1.168250
v 0.848783 8.748281 1.168250
v 0.446231 -6.833714 1.373360
v 0.446231 8.748281 1.373360
v -0.000001 -6.833714 1.444036
v -0.000001 8.748281 1.444036
v -0.446232 -6.833714 1.373360
v -0.446232 8.748281 1.373360
v -0.848784 -6.833714 1.168249
v -0.848784 8.748281 1.168249
v -1.168250 -6.833714 0.848782
v -1.168250 8.748281 0.848782
v -1.373360 -6.833714 0.446231
v -1.373360 8.748281 0.446231
v -1.444036 -6.833714 -0.000001
v -1.444036 8.748281 -0.000001
v -1.373360 -6.833714 -0.446233
v -1.373360 8.748281 -0.446233
v -1.168249 -6.833714 -0.848784
v -1.168249 8.748281 -0.848784
v -0.848782 -6.833714 -1.168251
v -0.848782 8.748281 -1.168251
v -0.446230 -6.833714 -1.373361
v -0.446230 8.748281 -1.373361
v -0.000000 12.997649 0.000000
v -0.000000 10.887408 -2.827669
v 0.873798 10.887408 -2.689273
v 1.662062 10.887408 -2.287632
v 2.287633 10.887408 -1.662062
v 2.689274 10.887408 -0.873797
v 2.827669 10.887408 0.000001
v 2.689273 10.887408 0.873799
v 2.287633 10.887408 1.662063
v 1.662062 10.887408 2.287634
v 0.873797 10.887408 2.689275
v -0.000001 10.887408 2.827670
v -0.873799 10.887408 2.689274
v -1.662064 10.887408 2.287632
v -2.287634 10.887408 1.662062
v -2.689275 10.887408 0.873796
v -2.827670 10.887408 -0.000002
v -2.689273 10.887408 -0.873800
v -2.287631 10.887408 -1.662065
v -1.662060 10.887408 -2.287634
v -0.873794 10.887408 -2.689274
v -0.000000 10.887407 -2.100371
v 0.649050 10.887407 -1.997572
v 1.234567 10.887407 -1.699236
v 1.699236 10.887407 -1.234567
v 1.997572 10.887407 -0.649050
v 2.100371 10.887407 0.000000
v 1.997572 10.887407 0.649051
v 1.699236 10.887407 1.234568
v 1.234567 10.887407 1.699237
v 0.649050 10.887407 1.997573
v -0.000001 10.887407 2.100372
v -0.649051 10.887407 1.997572
v -1.234568 10.887407 1.699236
v -1.699237 10.887407 1.234567
v -1.997573 10.887407 0.649049
v -2.100371 10.887407 -0.000002
v -1.997571 10.887407 -0.649052
v -1.699235 10.887407 -1.234569
v -1.234565 10.887407 -1.699237
v -0.649048 10.887407 -1.997573
v -0.000000 12.997649 -2.100371
v 0.649050 12.997649 -1.997572
v 1.234567 12.997649 -1.699236
v 1.699236 12.997649 -1.234567
v 1.997572 12.997649 -0.649050
v 2.100371 12.997649 0.000000
v 1.997572 12.997649 0.649051
v 1.699236 12.997649 1.234568
v 1.234567 12.997649 1.699237
v 0.649050 12.997649 1.997573
v -0.000001 12.997649 2.100372
v -0.649051 12.997649 1.997572
v -1.234568 12.997649 1.699236
v -1.699237 12.997649 1.234567
v -1.997573 12.997649 0.649049
v -2.100371 12.997649 -0.000002
v -1.997571 12.997649 -0.649052
v -1.699235 12.997649 -1.234569
v -1.234565 12.997649 -1.699237
v -0.649048 12.997649 -1.997573
v -1.997571 13.408263 -0.649052
v -2.689273 13.408264 -0.873800
v 0.873798 13.408264 -2.689273
v -0.000000 13.408264 -2.827669
v 0.649050 13.408263 -1.997572
v 1.662062 13.408264 -2.287632
v -0.000000 13.408263 -2.100371
v 2.287633 13.408264 -1.662062
v -1.234568 13.408263 1.699236
v -1.662064 13.408264 2.287632
v 2.689274 13.408264 -0.873797
v 1.234567 13.408263 1.699237
v 1.662062 13.408264 2.287634
v -0.649048 13.408263 -1.997573
v -0.873794 13.408264 -2.689274
v 2.689273 13.408264 0.873799
v 1.997572 13.408263 -0.649050
v 2.287633 13.408264 1.662063
v -2.100371 13.408263 -0.000002
v -2.827670 13.408264 -0.000002
v -0.649051 13.408263 1.997572
v -0.873799 13.408264 2.689274
v 0.873797 13.408264 2.689275
v 1.699236 13.408263 1.234568
v -0.000001 13.408264 2.827670
v 1.997572 13.408263 0.649051
v -1.234565 13.408263 -1.699237
v -1.662060 13.408264 -2.287634
v -2.287631 13.408264 -1.662065
v -1.699235 13.408263 -1.234569
v -2.287634 13.408264 1.662062
v 1.699236 13.408263 -1.234567
v -2.689275 13.408264 0.873796
v 1.234567 13.408263 -1.699236
v -1.997573 13.408263 0.649049
v -1.699237 13.408263 1.234567
v -0.000001 13.408263 2.100372
v 0.649050 13.408263 1.997573
vn -0.703000 0.673500 0.228400
vn -0.598000 0.673500 0.434500
vn 0.540500 0.744000 -0.392700
vn 0.635400 0.744000 -0.206400
vn -0.295600 -0.291100 -0.909800
vn -0.562300 -0.291100 -0.773900
vn -0.565000 -0.275800 -0.777600
vn -0.297000 -0.275800 -0.914200
vn 0.000000 -0.673500 -0.739100
vn 0.000000 -0.291100 -0.956700
vn 0.295600 -0.291100 -0.909800
vn 0.228400 -0.673500 -0.703000
vn 0.000000 0.673500 0.739100
vn 0.228400 0.673500 0.703000
vn -0.206400 0.744000 -0.635400
vn 0.000000 0.744000 -0.668100
vn -0.909800 -0.291100 -0.295600
vn -0.956700 -0.291100 0.000000
vn -0.961200 -0.275800 0.000000
vn -0.914200 -0.275800 -0.297000
vn 0.562300 -0.291100 -0.773900
vn 0.434500 -0.673500 -0.598000
vn -0.434500 0.673500 -0.598000
vn -0.598000 0.673500 -0.434500
vn 0.540500 0.744000 0.392700
vn 0.392700 0.744000 0.540500
vn -0.773900 -0.291100 0.562300
vn -0.562300 -0.291100 0.773900
vn -0.565000 -0.275800 0.777600
vn -0.777600 -0.275800 0.565000
vn 0.773900 -0.291100 -0.562300
vn 0.598000 -0.673500 -0.434500
vn 0.598000 0.673500 0.434500
vn 0.703000 0.673500 0.228400
vn -0.635400 0.744000 -0.206400
vn -0.540500 0.744000 -0.392700
vn 0.000000 -0.291100 0.956700
vn 0.295600 -0.291100 0.909800
vn 0.297000 -0.275800 0.914200
vn 0.000000 -0.275800 0.961200
vn 0.909800 -0.291100 -0.295600
vn 0.703000 -0.673500 -0.228400
vn -0.228400 0.673500 0.703000
vn 0.206400 0.744000 -0.635400
vn 0.773900 -0.291100 0.562300
vn 0.909800 -0.291100 0.295600
vn 0.914200 -0.275800 0.297000
vn 0.777600 -0.275800 0.565000
vn 0.956700 -0.291100 0.000000
vn 0.739100 -0.673500 0.000000
vn -0.739100 0.673500 0.000000
vn 0.668100 0.744000 0.000000
vn 0.777600 -0.275800 -0.565000
vn 0.914200 -0.275800 -0.297000
vn 0.703000 -0.673500 0.228400
vn 0.703000 0.673500 -0.228400
vn 0.598000 0.673500 -0.434500
vn -0.540500 0.744000 0.392700
vn -0.635400 0.744000 0.206400
vn 0.000000 -0.275800 -0.961200
vn 0.297000 -0.275800 -0.914200
vn 0.598000 -0.673500 0.434500
vn -0.228400 0.673500 -0.703000
vn 0.206400 0.744000 0.635400
vn -0.773900 -0.291100 -0.562300
vn -0.777600 -0.275800 -0.565000
vn 0.562300 -0.291100 0.773900
vn 0.434500 -0.673500 0.598000
vn 0.434500 0.673500 0.598000
vn -0.392700 0.744000 -0.540500
vn -0.909800 -0.291100 0.295600
vn -0.914200 -0.275800 0.297000
vn 0.228400 -0.673500 0.703000
vn -0.434500 0.673500 0.598000
vn 0.392700 0.744000 -0.540500
vn -0.295600 -0.291100 0.909800
vn -0.297000 -0.275800 0.914200
vn 0.000000 -0.673500 0.739100
vn 0.000000 0.673500 -0.739100
vn 0.000000 0.744000 0.668100
vn 0.565000 -0.275800 0.777600
vn -0.228400 -0.673500 0.703000
vn 0.228400 0.673500 -0.703000
vn -0.206400 0.744000 0.635400
vn 0.961200 -0.275800 0.000000
vn -0.434500 -0.673500 0.598000
vn -0.703000 0.673500 -0.228400
vn 0.635400 0.744000 0.206400
vn 0.565000 -0.275800 -0.777600
vn -0.598000 -0.673500 0.434500
vn 0.739100 0.673500 0.000000
vn -0.668100 0.744000 0.000000
vn -0.703000 -0.673500 0.228400
vn -0.739100 -0.673500 0.000000
vn -0.703000 -0.673500 -0.228400
vn 0.434500 0.673500 -0.598000
vn -0.392700 0.744000 0.540500
vn -0.598000 -0.673500 -0.434500
vn -0.434500 -0.673500 -0.598000
vn -0.228400 -0.673500 -0.703000
vn 0.707100 0.000000 0.707100
vn -0.316200 0.000000 0.948700
vn -1.000000 0.000000 0.000000
vn 0.000000 0.000000 1.000000
vn -0.707100 0.000000 0.707100
vn -0.640200 0.000000 -0.768200
vn 0.982800 0.000000 -0.184300
vn -0.447200 0.000000 0.894400
vn -0.400800 0.000000 -0.916100
vn -0.970100 0.000000 -0.242500
vn -0.707100 0.000000 -0.707100
vn 1.000000 0.000000 0.000000
vn 0.000000 0.000000 -1.000000
vn 0.936300 0.000000 0.351100
vn -0.747400 0.000000 -0.664400
vn 0.000000 1.000000 0.000000
usemtl None
s 1
f 136//1 134//2 139//3 138//4
f 42//5 40//6 62//7 63//8
f 3//9 4//10 6//11 5//12
f 128//13 126//14 141//15 140//16
f 36//17 34//18 59//19 60//20
f 5//12 6//11 8//21 7//22
f 131//23 132//24 133//25 130//26
f 30//27 28//28 56//29 57//30
f 7//22 8//21 10//31 9//32
f 121//33 119//34 129//35 127//36
f 24//37 22//38 53//39 54//40
f 9//32 10//31 12//41 11//42
f 125//43 128//13 140//16 124//44
f 18//45 16//46 50//47 51//48
f 11//42 12//41 14//49 13//50
f 123//51 136//1 138//4 122//52
f 12//41 10//31 47//53 48//54
f 13//50 14//49 16//46 15//55
f 114//56 111//57 135//58 120//59
f 6//11 4//10 44//60 45//61
f 15//55 16//46 18//45 17//62
f 118//63 131//23 130//26 117//64
f 38//65 36//17 60//20 61//66
f 17//62 18//45 20//67 19//68
f 116//69 121//33 127//36 115//70
f 32//71 30//27 57//30 58//72
f 19//68 20//67 22//38 21//73
f 113//74 125//43 124//44 112//75
f 26//76 24//37 54//40 55//77
f 21//73 22//38 24//37 23//78
f 107//79 118//63 117//64 110//80
f 20//67 18//45 51//48 52//81
f 23//78 24//37 26//76 25//82
f 106//83 107//79 110//80 108//84
f 14//49 12//41 48//54 49//85
f 25//82 26//76 28//28 27//86
f 105//87 123//51 122//52 104//88
f 8//21 6//11 45//61 46//89
f 27//86 28//28 30//27 29//90
f 2//91 114//56 120//59 1//92
f 4//10 42//5 63//8 44//60
f 29//90 30//27 32//71 31//93
f 126//14 116//69 115//70 141//15
f 40//6 38//65 61//66 62//7
f 31//93 32//71 34//18 33//94
f 134//2 113//74 112//75 139//3
f 34//18 32//71 58//72 59//19
f 33//94 34//18 36//17 35//95
f 109//96 106//83 108//84 137//97
f 28//28 26//76 55//77 56//29
f 35//95 36//17 38//65 37//98
f 132//24 105//87 104//88 133//25
f 22//38 20//67 52//81 53//39
f 37//98 38//65 40//6 39//99
f 119//34 2//91 1//92 129//35
f 16//46 14//49 49//85 50//47
f 39//99 40//6 42//5 41//100
f 111//57 109//96 137//97 135//58
f 10//31 8//21 46//89 47//53
f 41//100 42//5 4//10 3//9
f 74//101 75//102 124//44 140//16
f 48//54 47//53 111//57 114//56
f 67//103 68//104 120//59 135//58
f 61//66 60//20 105//87 132//24
f 80//105 81//105 133//25 104//88
f 54//40 53//39 126//14 128//13
f 73//103 74//101 140//16 141//15
f 47//53 46//89 109//96 111//57
f 66//106 67//103 135//58 137//97
f 60//20 59//19 123//51 105//87
f 79//107 80//105 104//88 122//52
f 53//39 52//81 116//69 126//14
f 72//108 73//103 141//15 115//70
f 46//89 45//61 106//83 109//96
f 65//109 66//106 137//97 108//84
f 59//19 58//72 136//1 123//51
f 78//110 79//107 122//52 138//4
f 52//81 51//48 121//33 116//69
f 71//111 72//108 115//70 127//36
f 45//61 44//60 107//79 106//83
f 72//108 71//111 91//33 92//69
f 83//112 82//112 102//23 103//63
f 68//104 67//103 87//57 88//56
f 79//107 78//110 98//1 99//51
f 75//102 74//101 94//13 95//43
f 71//111 70//113 90//34 91//33
f 82//112 81//105 101//24 102//23
f 67//103 66//106 86//96 87//57
f 78//110 77//111 97//2 98//1
f 74//101 73//103 93//14 94//13
f 70//113 69//114 89//91 90//34
f 81//105 80//105 100//87 101//24
f 66//106 65//109 85//83 86//96
f 77//111 76//104 96//74 97//2
f 73//103 72//108 92//69 93//14
f 69//114 68//104 88//56 89//91
f 80//105 79//107 99//51 100//87
f 65//109 64//115 84//79 85//83
f 64//115 83//112 103//63 84//79
f 76//104 75//102 95//43 96//74
f 43//116 85//83 84//79
f 43//116 86//96 85//83
f 43//116 87//57 86//96
f 43//116 88//56 87//57
f 43//116 89//91 88//56
f 43//116 90//34 89//91
f 43//116 91//33 90//34
f 43//116 92//69 91//33
f 43//116 93//14 92//69
f 43//116 94//13 93//14
f 43//116 95//43 94//13
f 43//116 96//74 95//43
f 43//116 97//2 96//74
f 43//116 98//1 97//2
f 43//116 99//51 98//1
f 43//116 100//87 99//51
f 43//116 101//24 100//87
f 43//116 102//23 101//24
f 43//116 103//63 102//23
f 43//116 84//79 103//63
f 3//9 5//12 7//22 9//32 11//42 13//50 15//55 17//62 19//68 21//73 23//78 25//82 27//86 29//90 31//93 33//94 35//95 37//98 39//99 41//100
f 55//77 54//40 128//13 125//43
f 81//105 82//112 130//26 133//25
f 62//7 61//66 132//24 131//23
f 68//104 69//114 1//92 120//59
f 49//85 48//54 114//56 2//91
f 75//102 76//104 112//75 124//44
f 56//29 55//77 125//43 113//74
f 82//112 83//112 117//64 130//26
f 63//8 62//7 131//23 118//63
f 69//114 70//113 129//35 1//92
f 83//112 64//115 110//80 117//64
f 50//47 49//85 2//91 119//34
f 44//60 63//8 118//63 107//79
f 76//104 77//111 139//3 112//75
f 57//30 56//29 113//74 134//2
f 70//113 71//111 127//36 129//35
f 51//48 50//47 119//34 121//33
f 77//111 78//110 138//4 139//3
f 58//72 57//30 134//2 136//1
f 64//115 65//109 108//84 110//80
