# Blender v2.79 (sub 0) OBJ File: 'Fridge.blend'
# www.blender.org
mtllib Fridge.mtl
o Cube
v 1.000000 0.248998 -1.000000
v 1.000000 0.248998 1.000000
v -1.000000 0.248998 1.000000
v -1.000000 0.248998 -1.000000
v 1.000000 2.248998 -0.999999
v 0.999999 2.248998 1.000001
v -1.000000 2.248998 1.000000
v -1.000000 2.248998 -1.000000
v 1.000000 2.384216 -0.999999
v 0.999999 2.384216 1.000001
v -1.000000 2.384216 -1.000000
v -1.000000 2.384216 1.000000
v 1.000000 3.868112 -0.999999
v 0.999999 3.868112 1.000001
v -1.000000 3.868112 -1.000000
v -1.000000 3.868112 1.000000
v -0.892608 0.248998 1.000000
v -0.930969 0.248998 1.000000
v -0.892608 2.248998 1.000001
v -0.930969 2.248998 1.000000
v -0.892608 2.384216 1.000001
v -0.930969 2.384216 1.000000
v -0.892608 3.868112 1.000001
v -0.930969 3.868112 1.000000
v -0.892609 1.160158 1.050458
v -0.930970 1.160158 1.050458
v -0.892609 2.197184 1.050459
v -0.930970 2.197184 1.050458
v -0.892609 2.429084 1.050459
v -0.930970 2.429084 1.050458
v -0.892609 3.307018 1.050459
v -0.930970 3.307018 1.050458
vn 0.0000 -1.0000 -0.0000
vn 1.0000 0.0000 0.0000
vn 0.0000 -0.0000 1.0000
vn -1.0000 -0.0000 -0.0000
vn 0.0000 0.0000 -1.0000
vn 0.0000 1.0000 0.0000
vn -0.0000 -0.0553 0.9985
vn 0.0000 0.9963 0.0854
vn 0.0000 -0.9509 -0.3096
vn 0.0000 -0.9806 0.1960
vn -0.0000 0.0896 0.9960
vn -0.0000 0.6977 0.7164
vn -0.0000 -0.7473 0.6645
usemtl Material
s off
f 1//1 2//1 3//1 4//1
f 6//2 5//2 9//2 10//2
f 1//2 5//2 6//2 2//2
f 2//3 6//3 19//3 17//3
f 3//4 7//4 8//4 4//4
f 5//5 1//5 4//5 8//5
f 11//4 12//4 16//4 15//4
f 8//4 7//4 12//4 11//4
f 5//5 8//5 11//5 9//5
f 7//3 6//3 10//3 12//3
f 13//6 15//6 16//6 14//6
f 9//5 11//5 15//5 13//5
f 7//3 3//3 18//3 20//3
f 10//2 9//2 13//2 14//2
f 18//7 17//7 25//7 26//7
f 20//4 18//4 26//4 28//4
f 16//3 12//3 22//3 24//3
f 14//8 16//8 24//8 23//8
f 10//3 14//3 23//3 21//3
f 12//9 10//9 21//9 22//9
f 3//10 2//10 17//10 18//10
f 6//8 7//8 20//8 19//8
f 25//3 27//3 28//3 26//3
f 30//3 29//3 31//3 32//3
f 21//2 23//2 31//2 29//2
f 23//11 24//11 32//11 31//11
f 19//12 20//12 28//12 27//12
f 17//2 19//2 27//2 25//2
f 24//4 22//4 30//4 32//4
f 22//13 21//13 29//13 30//13
