# Blender v2.79 (sub 0) OBJ File: 'T Shape Room.blend'
# www.blender.org
mtllib T Shape Room.mtl
o Cube_Cube.005
v 8.793766 0.223335 -8.935671
v 8.793766 10.582029 -8.935671
v 8.793764 0.223335 11.064329
v 8.793764 10.582029 11.064329
v -11.206234 0.223335 -8.935673
v -11.206234 10.582029 -8.935673
v -11.206236 0.223335 11.064327
v -11.206236 10.582029 11.064327
v 8.793765 0.223335 1.064329
v 8.793766 5.402682 -8.935671
v 8.793765 10.582029 1.064329
v 8.793764 5.402682 11.064329
v -1.206236 0.223335 11.064328
v -1.206236 10.582029 11.064328
v -11.206236 5.402682 11.064327
v -11.206235 0.223335 1.064327
v -11.206235 10.582029 1.064327
v -11.206234 5.402682 -8.935673
v -1.206234 0.223335 -8.935672
v -1.206234 10.582029 -8.935672
v -1.206235 10.582029 1.064328
v -1.206235 0.223335 1.064328
v -1.206234 5.402682 -8.935672
v 8.793765 0.223335 -3.935671
v 8.793766 7.992356 -8.935671
v 8.793765 10.582029 6.064329
v 8.793764 2.813009 11.064329
v 3.793764 0.223335 11.064328
v -6.206236 10.582029 11.064328
v -11.206236 2.813009 11.064327
v -11.206235 0.223335 6.064327
v -11.206235 10.582029 -3.935673
v -11.206234 2.813009 -8.935673
v -6.206234 0.223335 -8.935672
v 3.793766 10.582029 -8.935672
v 8.793765 0.223335 6.064329
v 8.793766 2.813009 -8.935671
v 8.793765 10.582029 -3.935671
v 8.793764 7.992356 11.064329
v -6.206236 0.223335 11.064328
v 3.793764 10.582029 11.064328
v -11.206236 7.992356 11.064327
v -11.206235 0.223335 -3.935673
v -11.206235 10.582029 6.064327
v -11.206234 7.992356 -8.935673
v 3.793766 0.223335 -8.935672
v -6.206234 10.582029 -8.935672
v -1.206234 10.582029 -3.935672
v -1.206235 10.582029 6.064328
v -6.206235 10.582029 1.064327
v 3.793765 10.582029 1.064328
v -1.206234 0.223335 -3.935672
v -1.206235 0.223335 6.064328
v 3.793765 0.223335 1.064328
v -6.206235 0.223335 1.064327
v 3.793766 5.402682 -8.935672
v -6.206234 5.402682 -8.935672
v -1.206234 2.813009 -8.935672
v -1.206234 7.992356 -8.935672
v -11.206235 5.402682 -3.935673
v -11.206235 5.402682 6.064327
v -11.206235 7.992356 1.064327
v -6.206236 5.402682 11.064328
v 3.793764 5.402682 11.064328
v -1.206236 7.992356 11.064328
v 8.793765 5.402682 6.064329
v 8.793765 5.402682 -3.935671
v 8.793765 7.992356 1.064329
v 8.793765 7.992356 -3.935671
v 8.793765 2.813009 -3.935671
v 8.793765 2.813009 6.064329
v 3.793764 7.992356 11.064328
v 3.793764 2.813009 11.064328
v -6.206236 2.813009 11.064328
v -11.206235 7.992356 6.064327
v -11.206235 2.813009 6.064327
v -11.206235 2.813009 -3.935673
v -6.206234 7.992356 -8.935672
v -6.206234 2.813009 -8.935672
v 3.793766 2.813009 -8.935672
v -6.206235 0.223335 6.064327
v 3.793765 0.223335 6.064328
v 3.793766 0.223335 -3.935672
v 3.793765 10.582029 6.064328
v -6.206235 10.582029 6.064327
v -6.206234 10.582029 -3.935673
v 3.793766 10.582029 -3.935672
v -6.206234 0.223335 -3.935673
v 3.793766 7.992356 -8.935672
v -11.206235 7.992356 -3.935673
v -6.206236 7.992356 11.064328
v 8.793765 7.992356 6.064329
v 8.793766 0.223335 -6.435671
v 8.793766 9.287193 -8.935671
v 8.793764 10.582029 8.564329
v 8.793764 1.518172 11.064329
v 6.293764 0.223335 11.064329
v -8.706236 10.582029 11.064327
v -11.206236 1.518172 11.064327
v -11.206236 0.223335 8.564327
v -11.206234 10.582029 -6.435673
v -11.206234 1.518172 -8.935673
v -8.706234 0.223335 -8.935673
v 6.293766 10.582029 -8.935671
v 8.793765 0.223335 3.564329
v 8.793766 4.107845 -8.935671
v 8.793765 10.582029 -1.435671
v 8.793764 6.697519 11.064329
v -3.706236 0.223335 11.064328
v 1.293764 10.582029 11.064328
v -11.206236 6.697519 11.064327
v -11.206235 0.223335 -1.435673
v -11.206235 10.582029 3.564327
v -11.206234 6.697519 -8.935673
v 1.293766 0.223335 -8.935672
v -3.706234 10.582029 -8.935672
v -1.206234 10.582029 -6.435672
v -1.206235 10.582029 3.564328
v -8.706235 10.582029 1.064327
v 1.293765 10.582029 1.064328
v -1.206234 0.223335 -6.435672
v -1.206235 0.223335 3.564328
v 6.293765 0.223335 1.064329
v -3.706235 0.223335 1.064328
v 6.293766 5.402682 -8.935671
v -3.706234 5.402682 -8.935672
v -1.206234 1.518172 -8.935672
v -1.206234 6.697519 -8.935672
v -11.206234 5.402682 -6.435673
v -11.206235 5.402682 3.564327
v -11.206235 6.697519 1.064327
v -8.706236 5.402682 11.064327
v 1.293764 5.402682 11.064328
v -1.206236 6.697519 11.064328
v 8.793764 5.402682 8.564329
v 8.793765 5.402682 -1.435671
v 8.793765 6.697519 1.064329
v 8.793765 0.223335 -1.435671
v 8.793766 6.697519 -8.935671
v 8.793765 10.582029 3.564329
v 8.793764 4.107845 11.064329
v 1.293764 0.223335 11.064328
v -3.706236 10.582029 11.064328
v -11.206236 4.107845 11.064327
v -11.206235 0.223335 3.564327
v -11.206235 10.582029 -1.435673
v -11.206234 4.107845 -8.935673
v -3.706234 0.223335 -8.935672
v 1.293766 10.582029 -8.935672
v 8.793764 0.223335 8.564329
v 8.793766 1.518172 -8.935671
v 8.793766 10.582029 -6.435671
v 8.793764 9.287193 11.064329
v -8.706236 0.223335 11.064327
v 6.293764 10.582029 11.064329
v -11.206236 9.287193 11.064327
v -11.206234 0.223335 -6.435673
v -11.206236 10.582029 8.564327
v -11.206234 9.287193 -8.935673
v 6.293766 0.223335 -8.935671
v -8.706234 10.582029 -8.935673
v -1.206235 10.582029 -1.435672
v -1.206236 10.582029 8.564328
v -3.706235 10.582029 1.064328
v 6.293765 10.582029 1.064329
v -1.206235 0.223335 -1.435672
v -1.206236 0.223335 8.564328
v 1.293765 0.223335 1.064328
v -8.706235 0.223335 1.064327
v 1.293766 5.402682 -8.935672
v -8.706234 5.402682 -8.935673
v -1.206234 4.107845 -8.935672
v -1.206234 9.287193 -8.935672
v -11.206235 5.402682 -1.435673
v -11.206236 5.402682 8.564327
v -11.206235 9.287193 1.064327
v -3.706236 5.402682 11.064328
v 6.293764 5.402682 11.064329
v -1.206236 9.287193 11.064328
v 8.793765 5.402682 3.564329
v 8.793766 5.402682 -6.435671
v 8.793765 9.287193 1.064329
v 8.793765 7.992356 -1.435671
v 8.793766 7.992356 -6.435671
v 8.793765 6.697519 -3.935671
v 8.793765 9.287193 -3.935671
v 8.793765 2.813009 -1.435671
v 8.793766 2.813009 -6.435671
v 8.793765 1.518172 -3.935671
v 8.793765 4.107845 -3.935671
v 8.793764 2.813009 8.564329
v 8.793765 2.813009 3.564329
v 8.793765 1.518172 6.064329
v 8.793765 4.107845 6.064329
v 1.293764 7.992356 11.064328
v 6.293764 7.992356 11.064329
v 3.793764 6.697519 11.064328
v 3.793764 9.287193 11.064328
v 1.293764 2.813009 11.064328
v 6.293764 2.813009 11.064329
v 3.793764 1.518172 11.064328
v 3.793764 4.107845 11.064328
v -8.706236 2.813009 11.064327
v -3.706236 2.813009 11.064328
v -6.206236 1.518172 11.064328
v -6.206236 4.107845 11.064328
v -11.206235 7.992356 3.564327
v -11.206236 7.992356 8.564327
v -11.206235 6.697519 6.064327
v -11.206235 9.287193 6.064327
v -11.206235 2.813009 3.564327
v -11.206236 2.813009 8.564327
v -11.206235 1.518172 6.064327
v -11.206235 4.107845 6.064327
v -11.206234 2.813009 -6.435673
v -11.206235 2.813009 -1.435673
v -11.206235 1.518172 -3.935673
v -11.206235 4.107845 -3.935673
v -3.706234 7.992356 -8.935672
v -8.706234 7.992356 -8.935673
v -6.206234 6.697519 -8.935672
v -6.206234 9.287193 -8.935672
v -3.706234 2.813009 -8.935672
v -8.706234 2.813009 -8.935673
v -6.206234 1.518172 -8.935672
v -6.206234 4.107845 -8.935672
v 6.293766 2.813009 -8.935671
v 1.293766 2.813009 -8.935672
v 3.793766 1.518172 -8.935672
v 3.793766 4.107845 -8.935672
v -6.206235 0.223335 3.564327
v -6.206235 0.223335 8.564327
v -3.706235 0.223335 6.064328
v -8.706236 0.223335 6.064327
v 3.793765 0.223335 3.564328
v 3.793765 0.223335 8.564328
v 6.293765 0.223335 6.064328
v 1.293765 0.223335 6.064328
v 3.793766 0.223335 -6.435672
v 3.793765 0.223335 -1.435672
v 6.293766 0.223335 -3.935672
v 1.293766 0.223335 -3.935672
v 3.793765 10.582029 3.564328
v 3.793765 10.582029 8.564328
v 1.293765 10.582029 6.064328
v 6.293765 10.582029 6.064328
v -6.206235 10.582029 3.564327
v -6.206235 10.582029 8.564327
v -8.706236 10.582029 6.064327
v -3.706235 10.582029 6.064328
v -6.206234 10.582029 -6.435673
v -6.206235 10.582029 -1.435673
v -8.706234 10.582029 -3.935673
v -3.706234 10.582029 -3.935672
v 3.793766 10.582029 -6.435672
v 3.793765 10.582029 -1.435672
v 1.293766 10.582029 -3.935672
v 6.293766 10.582029 -3.935672
v -6.206234 0.223335 -6.435673
v -6.206235 0.223335 -1.435673
v -3.706234 0.223335 -3.935672
v -8.706234 0.223335 -3.935673
v 6.293766 7.992356 -8.935671
v 1.293766 7.992356 -8.935672
v 3.793766 6.697519 -8.935672
v 3.793766 9.287193 -8.935672
v -11.206234 7.992356 -6.435673
v -11.206235 7.992356 -1.435673
v -11.206235 6.697519 -3.935673
v -11.206235 9.287193 -3.935673
v -8.706236 7.992356 11.064327
v -3.706236 7.992356 11.064328
v -6.206236 6.697519 11.064328
v -6.206236 9.287193 11.064328
v 8.793764 7.992356 8.564329
v 8.793765 7.992356 3.564329
v 8.793765 6.697519 6.064329
v 8.793765 9.287193 6.064329
v 8.793765 9.287193 3.564329
v 8.793765 6.697519 3.564329
v 8.793764 6.697519 8.564329
v -3.706236 9.287193 11.064328
v -3.706236 6.697519 11.064328
v -8.706236 6.697519 11.064327
v -11.206235 9.287193 -1.435673
v -11.206235 6.697519 -1.435673
v -11.206234 6.697519 -6.435673
v 1.293766 9.287193 -8.935672
v 1.293766 6.697519 -8.935672
v 6.293766 6.697519 -8.935671
v -8.706235 0.223335 -1.435673
v -3.706235 0.223335 -1.435672
v -3.706234 0.223335 -6.435672
v 6.293765 10.582029 -1.435671
v 1.293765 10.582029 -1.435672
v 1.293766 10.582029 -6.435672
v -3.706235 10.582029 -1.435672
v -8.706235 10.582029 -1.435673
v -8.706234 10.582029 -6.435673
v -3.706236 10.582029 8.564328
v -8.706236 10.582029 8.564327
v -8.706235 10.582029 3.564327
v 6.293765 10.582029 8.564328
v 1.293764 10.582029 8.564328
v 1.293765 10.582029 3.564328
v 1.293765 0.223335 -1.435672
v 6.293765 0.223335 -1.435671
v 6.293766 0.223335 -6.435672
v 1.293764 0.223335 8.564328
v 6.293765 0.223335 8.564328
v 6.293765 0.223335 3.564329
v -8.706236 0.223335 8.564327
v -3.706236 0.223335 8.564328
v -3.706235 0.223335 3.564328
v 1.293766 4.107845 -8.935672
v 1.293766 1.518172 -8.935672
v 6.293766 1.518172 -8.935671
v -8.706234 4.107845 -8.935673
v -8.706234 1.518172 -8.935673
v -3.706234 1.518172 -8.935672
v -8.706234 9.287193 -8.935673
v -8.706234 6.697519 -8.935673
v -3.706234 6.697519 -8.935672
v -11.206235 4.107845 -1.435673
v -11.206235 1.518172 -1.435673
v -11.206234 1.518172 -6.435673
v -11.206236 4.107845 8.564327
v -11.206236 1.518172 8.564327
v -11.206235 1.518172 3.564327
v -11.206236 9.287193 8.564327
v -11.206236 6.697519 8.564327
v -11.206235 6.697519 3.564327
v -3.706236 4.107845 11.064328
v -3.706236 1.518172 11.064328
v -8.706236 1.518172 11.064327
v 6.293764 4.107845 11.064329
v 6.293764 1.518172 11.064329
v 1.293764 1.518172 11.064328
v 6.293764 9.287193 11.064329
v 6.293764 6.697519 11.064329
v 1.293764 6.697519 11.064328
v 8.793765 4.107845 3.564329
v 8.793765 1.518172 3.564329
v 8.793764 1.518172 8.564329
v 8.793766 4.107845 -6.435671
v 8.793766 1.518172 -6.435671
v 8.793765 1.518172 -1.435671
v 8.793766 9.287193 -6.435671
v 8.793766 6.697519 -6.435671
v 8.793765 6.697519 -1.435671
v 8.793765 9.287193 -1.435671
v 8.793765 4.107845 -1.435671
v 8.793764 4.107845 8.564329
v 1.293764 9.287193 11.064328
v 1.293764 4.107845 11.064328
v -8.706236 4.107845 11.064327
v -11.206235 9.287193 3.564327
v -11.206235 4.107845 3.564327
v -11.206234 4.107845 -6.435673
v -3.706234 9.287193 -8.935672
v -3.706234 4.107845 -8.935672
v 6.293766 4.107845 -8.935671
v -8.706235 0.223335 3.564327
v 1.293765 0.223335 3.564328
v 1.293766 0.223335 -6.435672
v 6.293765 10.582029 3.564329
v -3.706235 10.582029 3.564328
v -3.706234 10.582029 -6.435672
v 6.293766 10.582029 -6.435672
v -8.706234 0.223335 -6.435673
v 6.293766 9.287193 -8.935671
v -11.206234 9.287193 -6.435673
v -8.706236 9.287193 11.064327
v 8.793764 9.287193 8.564329
vn 1.0000 0.0000 0.0000
vn 0.0000 0.0000 1.0000
vn -1.0000 0.0000 0.0000
vn 0.0000 0.0000 -1.0000
vn 0.0000 -1.0000 0.0000
vn 0.0000 1.0000 0.0000
usemtl None
s off
f 374//1 95//1 4//1 153//1
f 373//2 98//2 8//2 156//2
f 372//3 101//3 6//3 159//3
f 371//4 104//4 2//4 94//4
f 370//5 157//5 5//5 103//5
f 369//6 152//6 2//6 104//6
f 368//6 117//6 20//6 116//6
f 367//6 118//6 21//6 164//6
f 366//6 140//6 11//6 165//6
f 365//5 121//5 19//5 115//5
f 364//5 122//5 22//5 168//5
f 363//5 145//5 16//5 169//5
f 362//4 125//4 10//4 106//4
f 361//4 126//4 23//4 172//4
f 360//4 116//4 20//4 173//4
f 359//3 129//3 18//3 147//3
f 357//3 113//3 17//3 176//3
f 356//2 132//2 15//2 144//2
f 354//2 110//2 14//2 179//2
f 353//1 135//1 12//1 141//1
f 351//1 107//1 11//1 182//1
f 350//1 183//1 68//1 137//1
f 349//1 184//1 69//1 185//1
f 348//1 152//1 38//1 186//1
f 346//1 188//1 70//1 189//1
f 345//1 181//1 67//1 190//1
f 344//1 191//1 27//1 96//1
f 343//1 192//1 71//1 193//1
f 342//1 180//1 66//1 194//1
f 341//2 195//2 65//2 134//2
f 340//2 196//2 72//2 197//2
f 339//2 155//2 41//2 198//2
f 337//2 200//2 73//2 201//2
f 336//2 178//2 64//2 202//2
f 335//2 203//2 30//2 99//2
f 334//2 204//2 74//2 205//2
f 333//2 177//2 63//2 206//2
f 332//3 207//3 62//3 131//3
f 331//3 208//3 75//3 209//3
f 330//3 158//3 44//3 210//3
f 328//3 212//3 76//3 213//3
f 327//3 175//3 61//3 214//3
f 326//3 215//3 33//3 102//3
f 325//3 216//3 77//3 217//3
f 324//3 174//3 60//3 218//3
f 323//4 219//4 59//4 128//4
f 322//4 220//4 78//4 221//4
f 321//4 161//4 47//4 222//4
f 320//4 223//4 58//4 127//4
f 319//4 224//4 79//4 225//4
f 318//4 171//4 57//4 226//4
f 317//4 227//4 37//4 151//4
f 316//4 228//4 80//4 229//4
f 315//4 170//4 56//4 230//4
f 314//5 231//5 55//5 124//5
f 313//5 232//5 81//5 233//5
f 312//5 100//5 31//5 234//5
f 311//5 235//5 54//5 123//5
f 310//5 236//5 82//5 237//5
f 309//5 167//5 53//5 238//5
f 308//5 239//5 46//5 160//5
f 307//5 240//5 83//5 241//5
f 306//5 166//5 52//5 242//5
f 305//6 243//6 51//6 120//6
f 304//6 244//6 84//6 245//6
f 303//6 95//6 26//6 246//6
f 302//6 247//6 50//6 119//6
f 301//6 248//6 85//6 249//6
f 300//6 163//6 49//6 250//6
f 299//6 251//6 47//6 161//6
f 298//6 252//6 86//6 253//6
f 297//6 162//6 48//6 254//6
f 296//6 255//6 35//6 149//6
f 295//6 256//6 87//6 257//6
f 294//6 107//6 38//6 258//6
f 293//5 259//5 34//5 148//5
f 292//5 260//5 88//5 261//5
f 291//5 112//5 43//5 262//5
f 290//4 263//4 25//4 139//4
f 289//4 264//4 89//4 265//4
f 288//4 149//4 35//4 266//4
f 287//3 267//3 45//3 114//3
f 286//3 268//3 90//3 269//3
f 285//3 146//3 32//3 270//3
f 284//2 271//2 42//2 111//2
f 283//2 272//2 91//2 273//2
f 282//2 143//2 29//2 274//2
f 281//1 275//1 39//1 108//1
f 280//1 276//1 92//1 277//1
f 279//1 140//1 26//1 278//1
f 276//1 279//1 278//1 92//1
f 68//1 182//1 279//1 276//1
f 182//1 11//1 140//1 279//1
f 180//1 280//1 277//1 66//1
f 137//1 68//1 276//1 280//1
f 135//1 281//1 108//1 12//1
f 66//1 277//1 281//1 135//1
f 277//1 92//1 275//1 281//1
f 272//2 282//2 274//2 91//2
f 65//2 179//2 282//2 272//2
f 179//2 14//2 143//2 282//2
f 177//2 283//2 273//2 63//2
f 134//2 65//2 272//2 283//2
f 132//2 284//2 111//2 15//2
f 63//2 273//2 284//2 132//2
f 273//2 91//2 271//2 284//2
f 268//3 285//3 270//3 90//3
f 62//3 176//3 285//3 268//3
f 176//3 17//3 146//3 285//3
f 174//3 286//3 269//3 60//3
f 131//3 62//3 268//3 286//3
f 129//3 287//3 114//3 18//3
f 60//3 269//3 287//3 129//3
f 269//3 90//3 267//3 287//3
f 264//4 288//4 266//4 89//4
f 59//4 173//4 288//4 264//4
f 173//4 20//4 149//4 288//4
f 170//4 289//4 265//4 56//4
f 23//4 128//4 289//4 170//4
f 128//4 59//4 264//4 289//4
f 125//4 290//4 139//4 10//4
f 56//4 265//4 290//4 125//4
f 265//4 89//4 263//4 290//4
f 260//5 291//5 262//5 88//5
f 55//5 169//5 291//5 260//5
f 169//5 16//5 112//5 291//5
f 166//5 292//5 261//5 52//5
f 22//5 124//5 292//5 166//5
f 124//5 55//5 260//5 292//5
f 121//5 293//5 148//5 19//5
f 52//5 261//5 293//5 121//5
f 261//5 88//5 259//5 293//5
f 256//6 294//6 258//6 87//6
f 51//6 165//6 294//6 256//6
f 165//6 11//6 107//6 294//6
f 162//6 295//6 257//6 48//6
f 21//6 120//6 295//6 162//6
f 120//6 51//6 256//6 295//6
f 117//6 296//6 149//6 20//6
f 48//6 257//6 296//6 117//6
f 257//6 87//6 255//6 296//6
f 252//6 297//6 254//6 86//6
f 50//6 164//6 297//6 252//6
f 164//6 21//6 162//6 297//6
f 146//6 298//6 253//6 32//6
f 17//6 119//6 298//6 146//6
f 119//6 50//6 252//6 298//6
f 101//6 299//6 161//6 6//6
f 32//6 253//6 299//6 101//6
f 253//6 86//6 251//6 299//6
f 248//6 300//6 250//6 85//6
f 29//6 143//6 300//6 248//6
f 143//6 14//6 163//6 300//6
f 158//6 301//6 249//6 44//6
f 8//6 98//6 301//6 158//6
f 98//6 29//6 248//6 301//6
f 113//6 302//6 119//6 17//6
f 44//6 249//6 302//6 113//6
f 249//6 85//6 247//6 302//6
f 244//6 303//6 246//6 84//6
f 41//6 155//6 303//6 244//6
f 155//6 4//6 95//6 303//6
f 163//6 304//6 245//6 49//6
f 14//6 110//6 304//6 163//6
f 110//6 41//6 244//6 304//6
f 118//6 305//6 120//6 21//6
f 49//6 245//6 305//6 118//6
f 245//6 84//6 243//6 305//6
f 240//5 306//5 242//5 83//5
f 54//5 168//5 306//5 240//5
f 168//5 22//5 166//5 306//5
f 138//5 307//5 241//5 24//5
f 9//5 123//5 307//5 138//5
f 123//5 54//5 240//5 307//5
f 93//5 308//5 160//5 1//5
f 24//5 241//5 308//5 93//5
f 241//5 83//5 239//5 308//5
f 236//5 309//5 238//5 82//5
f 28//5 142//5 309//5 236//5
f 142//5 13//5 167//5 309//5
f 150//5 310//5 237//5 36//5
f 3//5 97//5 310//5 150//5
f 97//5 28//5 236//5 310//5
f 105//5 311//5 123//5 9//5
f 36//5 237//5 311//5 105//5
f 237//5 82//5 235//5 311//5
f 232//5 312//5 234//5 81//5
f 40//5 154//5 312//5 232//5
f 154//5 7//5 100//5 312//5
f 167//5 313//5 233//5 53//5
f 13//5 109//5 313//5 167//5
f 109//5 40//5 232//5 313//5
f 122//5 314//5 124//5 22//5
f 53//5 233//5 314//5 122//5
f 233//5 81//5 231//5 314//5
f 228//4 315//4 230//4 80//4
f 58//4 172//4 315//4 228//4
f 172//4 23//4 170//4 315//4
f 115//4 316//4 229//4 46//4
f 19//4 127//4 316//4 115//4
f 127//4 58//4 228//4 316//4
f 160//4 317//4 151//4 1//4
f 46//4 229//4 317//4 160//4
f 229//4 80//4 227//4 317//4
f 224//4 318//4 226//4 79//4
f 33//4 147//4 318//4 224//4
f 147//4 18//4 171//4 318//4
f 103//4 319//4 225//4 34//4
f 5//4 102//4 319//4 103//4
f 102//4 33//4 224//4 319//4
f 148//4 320//4 127//4 19//4
f 34//4 225//4 320//4 148//4
f 225//4 79//4 223//4 320//4
f 220//4 321//4 222//4 78//4
f 45//4 159//4 321//4 220//4
f 159//4 6//4 161//4 321//4
f 171//4 322//4 221//4 57//4
f 18//4 114//4 322//4 171//4
f 114//4 45//4 220//4 322//4
f 126//4 323//4 128//4 23//4
f 57//4 221//4 323//4 126//4
f 221//4 78//4 219//4 323//4
f 216//3 324//3 218//3 77//3
f 112//3 325//3 217//3 43//3
f 157//3 326//3 102//3 5//3
f 43//3 217//3 326//3 157//3
f 217//3 77//3 215//3 326//3
f 212//3 327//3 214//3 76//3
f 30//3 144//3 327//3 212//3
f 144//3 15//3 175//3 327//3
f 100//3 328//3 213//3 31//3
f 7//3 99//3 328//3 100//3
f 99//3 30//3 212//3 328//3
f 31//3 213//3 329//3 145//3
f 213//3 76//3 211//3 329//3
f 208//3 330//3 210//3 75//3
f 42//3 156//3 330//3 208//3
f 156//3 8//3 158//3 330//3
f 175//3 331//3 209//3 61//3
f 15//3 111//3 331//3 175//3
f 111//3 42//3 208//3 331//3
f 61//3 209//3 332//3 130//3
f 209//3 75//3 207//3 332//3
f 204//2 333//2 206//2 74//2
f 109//2 334//2 205//2 40//2
f 154//2 335//2 99//2 7//2
f 40//2 205//2 335//2 154//2
f 205//2 74//2 203//2 335//2
f 200//2 336//2 202//2 73//2
f 27//2 141//2 336//2 200//2
f 141//2 12//2 178//2 336//2
f 97//2 337//2 201//2 28//2
f 3//2 96//2 337//2 97//2
f 96//2 27//2 200//2 337//2
f 28//2 201//2 338//2 142//2
f 201//2 73//2 199//2 338//2
f 196//2 339//2 198//2 72//2
f 39//2 153//2 339//2 196//2
f 153//2 4//2 155//2 339//2
f 178//2 340//2 197//2 64//2
f 12//2 108//2 340//2 178//2
f 108//2 39//2 196//2 340//2
f 64//2 197//2 341//2 133//2
f 197//2 72//2 195//2 341//2
f 192//1 342//1 194//1 71//1
f 105//1 343//1 193//1 36//1
f 150//1 344//1 96//1 3//1
f 36//1 193//1 344//1 150//1
f 193//1 71//1 191//1 344//1
f 188//1 345//1 190//1 70//1
f 37//1 106//1 345//1 188//1
f 106//1 10//1 181//1 345//1
f 93//1 346//1 189//1 24//1
f 1//1 151//1 346//1 93//1
f 151//1 37//1 188//1 346//1
f 24//1 189//1 347//1 138//1
f 189//1 70//1 187//1 347//1
f 184//1 348//1 186//1 69//1
f 25//1 94//1 348//1 184//1
f 94//1 2//1 152//1 348//1
f 181//1 349//1 185//1 67//1
f 10//1 139//1 349//1 181//1
f 139//1 25//1 184//1 349//1
f 67//1 185//1 350//1 136//1
f 185//1 69//1 183//1 350//1
f 183//1 351//1 182//1 68//1
f 69//1 186//1 351//1 183//1
f 186//1 38//1 107//1 351//1
f 70//1 190//1 352//1 187//1
f 190//1 67//1 136//1 352//1
f 191//1 353//1 141//1 27//1
f 71//1 194//1 353//1 191//1
f 194//1 66//1 135//1 353//1
f 195//2 354//2 179//2 65//2
f 72//2 198//2 354//2 195//2
f 198//2 41//2 110//2 354//2
f 73//2 202//2 355//2 199//2
f 202//2 64//2 133//2 355//2
f 203//2 356//2 144//2 30//2
f 74//2 206//2 356//2 203//2
f 206//2 63//2 132//2 356//2
f 207//3 357//3 176//3 62//3
f 75//3 210//3 357//3 207//3
f 210//3 44//3 113//3 357//3
f 76//3 214//3 358//3 211//3
f 214//3 61//3 130//3 358//3
f 215//3 359//3 147//3 33//3
f 77//3 218//3 359//3 215//3
f 218//3 60//3 129//3 359//3
f 219//4 360//4 173//4 59//4
f 78//4 222//4 360//4 219//4
f 222//4 47//4 116//4 360//4
f 223//4 361//4 172//4 58//4
f 79//4 226//4 361//4 223//4
f 226//4 57//4 126//4 361//4
f 227//4 362//4 106//4 37//4
f 80//4 230//4 362//4 227//4
f 230//4 56//4 125//4 362//4
f 231//5 363//5 169//5 55//5
f 81//5 234//5 363//5 231//5
f 234//5 31//5 145//5 363//5
f 235//5 364//5 168//5 54//5
f 82//5 238//5 364//5 235//5
f 238//5 53//5 122//5 364//5
f 239//5 365//5 115//5 46//5
f 83//5 242//5 365//5 239//5
f 242//5 52//5 121//5 365//5
f 243//6 366//6 165//6 51//6
f 84//6 246//6 366//6 243//6
f 246//6 26//6 140//6 366//6
f 247//6 367//6 164//6 50//6
f 85//6 250//6 367//6 247//6
f 250//6 49//6 118//6 367//6
f 251//6 368//6 116//6 47//6
f 86//6 254//6 368//6 251//6
f 254//6 48//6 117//6 368//6
f 255//6 369//6 104//6 35//6
f 87//6 258//6 369//6 255//6
f 258//6 38//6 152//6 369//6
f 259//5 370//5 103//5 34//5
f 88//5 262//5 370//5 259//5
f 262//5 43//5 157//5 370//5
f 263//4 371//4 94//4 25//4
f 89//4 266//4 371//4 263//4
f 266//4 35//4 104//4 371//4
f 267//3 372//3 159//3 45//3
f 90//3 270//3 372//3 267//3
f 270//3 32//3 101//3 372//3
f 271//2 373//2 156//2 42//2
f 91//2 274//2 373//2 271//2
f 274//2 29//2 98//2 373//2
f 275//1 374//1 153//1 39//1
f 92//1 278//1 374//1 275//1
f 278//1 26//1 95//1 374//1
